<?xml version="1.0" encoding="UTF-8"?>
<svg width="46px" height="52px" viewBox="0 0 46 52" version="1.1" xmlns="http://www.w3.org/2000/svg" xmlns:xlink="http://www.w3.org/1999/xlink">
    <!-- Generator: Sketch 58 (84663) - https://sketch.com -->
    <title>hand-peace</title>
    <desc>Created with Sketch.</desc>
    <g id="Page-1" stroke="none" stroke-width="1" fill="none" fill-rule="evenodd">
        <g id="Home" transform="translate(-697.000000, -2571.000000)" fill="#9ADC23" fill-rule="nonzero">
            <g id="hand-peace" transform="translate(697.000000, 2571.000000)">
                <path d="M37.3382454,20.4266563 C35.9962371,17.6219062 32.78127,16.2773203 29.8658161,17.2480547 L29.8658161,6.85546875 C29.8658161,3.0753125 26.7863846,0 23.0012436,0 C19.2161027,0 16.1366712,3.0753125 16.1366712,6.85546875 L16.4285862,17.875 L13.2607485,8.77825 C11.8742804,5.23514062 7.87176904,3.50624219 4.34527526,4.89734375 C0.823504701,6.2863125 -0.903137294,10.2507031 0.473268268,13.768625 L6.68110892,29.6339062 C3.68690059,32.0389062 1.61566948,34.8691484 3.73598093,38.5945625 L9.60292889,48.9031562 C10.6900891,50.8133437 12.7328782,52 14.9341003,52 L36.9353349,52 C38.3177985,52 39.6746951,51.5265156 40.7560026,50.6666875 C41.8295065,49.8130547 42.5928187,48.6084219 42.9053721,47.2745 L45.8388974,34.7569219 C45.9458912,34.2999272 46,33.83237 46,33.3632812 L46,26 C46,21.5440469 41.3655023,18.598125 37.3382454,20.4266563 L37.3382454,20.4266563 Z M7.29420236,33.3280391 L10.14425,31.0388203 C10.4207933,30.8166351 10.5210582,30.4434776 10.3925267,30.1148047 L3.53760602,12.5956797 C1.79145511,8.133125 8.46463481,5.52530469 10.1965134,9.95119531 L16.5907156,26.2932109 C16.7131853,26.6061465 17.0175486,26.8124183 17.3568,26.8123984 L18.6009556,26.8123984 C19.0546179,26.8123984 19.4223838,26.4486298 19.4223838,25.9998984 L19.4223838,6.85546875 C19.4223838,2.08924219 26.5800008,2.07989844 26.5800008,6.85546875 L26.5800008,26 C26.5800008,26.4487314 26.9477667,26.8125 27.4014289,26.8125 L28.1348616,26.8125 C28.5885238,26.8125 28.9562898,26.4487314 28.9562898,26 L28.9562898,23.0546875 C28.9562898,19.2612266 34.6472467,19.2552344 34.6472467,23.0546875 L34.6472467,26 C34.6472467,26.4487314 35.0150127,26.8125 35.4686749,26.8125 L36.2021076,26.8125 C36.6557698,26.8125 37.0235357,26.4487314 37.0235357,26 C37.0235357,22.2066406 42.71439,22.2005469 42.71439,26 L42.71439,33.3632812 C42.71439,33.5852969 42.6887204,33.8072109 42.6382026,34.0230313 L39.7046773,46.5406094 C39.3998247,47.8415234 38.2610173,48.75 36.9354376,48.75 L14.9341003,48.75 C13.9177883,48.75 12.9721192,48.1978047 12.4662221,47.3089297 L6.59917146,37.0003359 C5.89448878,35.7620859 6.18681452,34.2177266 7.29420236,33.3280391 Z" id="Shape"></path>
            </g>
        </g>
    </g>
</svg>