<?xml version="1.0" encoding="UTF-8"?>
<svg width="36px" height="36px" viewBox="0 0 36 36" version="1.1" xmlns="http://www.w3.org/2000/svg" xmlns:xlink="http://www.w3.org/1999/xlink">
    <!-- Generator: sketchtool 58 (101010) - https://sketch.com -->
    <title>3B78280F-3D4D-433A-A2CE-1CA65AA6B690</title>
    <desc>Created with sketchtool.</desc>
    <g id="Page-1" stroke="none" stroke-width="1" fill="none" fill-rule="evenodd">
        <g id="Home" transform="translate(-770.000000, -2951.000000)" fill="#FFFFFF" fill-rule="nonzero">
            <path d="M788,2964.71375 C785.632979,2964.71464 783.714766,2966.63405 783.715357,2969.00107 C783.715949,2971.36809 785.635121,2973.28655 788.002143,2973.28625 C790.369164,2973.28595 792.287857,2971.36702 792.287857,2969 C792.286084,2966.63288 790.367123,2964.71464 788,2964.71375 L788,2964.71375 Z M798.021339,2961.41911 C797.580274,2960.30134 796.695447,2959.41651 795.577679,2958.97545 C793.890179,2958.30929 789.872321,2958.45875 788,2958.45875 C786.127679,2958.45875 782.113839,2958.30366 780.421518,2958.97545 C779.303749,2959.41651 778.418923,2960.30134 777.977857,2961.41911 C777.3125,2963.10661 777.461161,2967.12848 777.461161,2968.9992 C777.461161,2970.86991 777.3125,2974.88696 777.981071,2976.58009 C778.422137,2977.69786 779.306963,2978.58268 780.424732,2979.02375 C782.112232,2979.68991 786.130089,2979.54045 788.003214,2979.54045 C789.876339,2979.54045 793.888571,2979.69554 795.580893,2979.02375 C796.698662,2978.58268 797.583488,2977.69786 798.024554,2976.58009 C798.695536,2974.89259 798.54125,2970.87071 798.54125,2969 C798.54125,2967.12929 798.695536,2963.11304 798.024554,2961.41991 L798.021339,2961.41911 Z M788,2975.58929 C784.360838,2975.58929 781.410714,2972.63916 781.410714,2969 C781.410714,2965.36084 784.360838,2962.41071 788,2962.41071 C791.639162,2962.41071 794.589291,2965.36084 794.589291,2969 C794.591422,2970.74824 793.897881,2972.42549 792.661687,2973.66169 C791.425493,2974.89788 789.748241,2975.59142 788,2975.58929 L788,2975.58929 Z M794.860893,2963.67232 C794.238742,2963.67265 793.677672,2963.29812 793.43936,2962.72342 C793.201048,2962.14872 793.332438,2961.48706 793.77225,2961.04701 C794.212062,2960.60697 794.873661,2960.47524 795.448484,2960.71325 C796.023308,2960.95126 796.398138,2961.51214 796.398138,2962.13429 C796.399834,2962.54232 796.238995,2962.93424 795.951149,2963.22344 C795.663303,2963.51265 795.272144,2963.67533 794.864107,2963.67554 L794.860893,2963.67232 Z M802.142857,2951 L773.857143,2951 C771.726902,2951 770,2952.7269 770,2954.85714 L770,2983.14286 C770,2985.2731 771.726902,2987 773.857143,2987 L802.142857,2987 C804.273098,2987 806,2985.2731 806,2983.14286 L806,2954.85714 C806,2952.7269 804.273098,2951 802.142857,2951 L802.142857,2951 Z M800.767143,2974.30357 C800.663482,2976.36312 800.193393,2978.18804 798.689911,2979.6875 C797.186429,2981.18696 795.363125,2981.6667 793.305982,2981.76473 C791.18375,2981.88446 784.821071,2981.88446 782.698839,2981.76473 C780.639286,2981.66107 778.820804,2981.19018 777.314911,2979.6875 C775.809018,2978.18482 775.335714,2976.35911 775.237679,2974.30357 C775.117946,2972.18054 775.117946,2965.81705 775.237679,2963.69643 C775.341339,2961.63688 775.805804,2959.81196 777.314911,2958.3125 C778.824018,2956.81304 780.647321,2956.33893 782.698839,2956.24089 C784.821071,2956.12116 791.18375,2956.12116 793.305982,2956.24089 C795.365536,2956.34455 797.189643,2956.81545 798.689911,2958.31812 C800.190179,2959.8208 800.669107,2961.64652 800.767143,2963.70607 C800.886875,2965.82107 800.886875,2972.17893 800.767143,2974.30357 Z" id="Shape"></path>
        </g>
    </g>
</svg>