<?xml version="1.0" encoding="UTF-8"?>
<svg width="48px" height="48px" viewBox="0 0 48 48" version="1.1" xmlns="http://www.w3.org/2000/svg" xmlns:xlink="http://www.w3.org/1999/xlink">
    <!-- Generator: Sketch 58 (84663) - https://sketch.com -->
    <title>Group 5</title>
    <desc>Created with Sketch.</desc>
    <defs>
        <path d="M3,28.8903809 L19,20.5876949 L19,18.2126949 L5.39160156,12 L4,15.1104222 C4,15.4113864 4.07901235,15.6894511 4.23703704,15.9446164 C4.39506173,16.1997817 4.64526749,16.4189621 4.98765432,16.6021577 L9.59753086,18.6052569 C9.92674897,18.7884525 10.2855967,18.9422059 10.6740741,19.0665172 C11.0625514,19.1908285 11.4674897,19.3053258 11.8888889,19.410009 C11.4674897,19.5146922 11.0625514,19.6226467 10.6740741,19.7338726 C10.2855967,19.8450985 9.92674897,19.9923092 9.59753086,20.1755048 L3.98765432,23.1982321 C3.64526749,23.3814277 3.39506173,23.5973368 3.23703704,23.8459594 C3.07901235,24.094582 3,24.3693753 3,24.6703395 L3,28.8903809 Z" id="path-1"></path>
    </defs>
    <g id="Page-1" stroke="none" stroke-width="1" fill="none" fill-rule="evenodd">
        <g id="Home" transform="translate(-80.000000, -24.000000)">
            <g id="Group-5" transform="translate(80.000000, 24.000000)">
                <circle id="Oval-Copy-9" fill="#FFFFFF" cx="24" cy="24" r="24"></circle>
                <path d="M17.3778371,40 C17.7872719,40 18.2009717,39.9532164 18.6189364,39.8596491 C19.0369011,39.7660819 19.4292761,39.625731 19.7960614,39.4385965 C20.1628468,39.251462 20.4955125,39.0175439 20.7940587,38.7368421 C21.092605,38.4561404 21.3357069,38.1353383 21.5233645,37.7744361 L34,8 L30.6221629,8 C29.7009346,8 28.8905949,8.18045113 28.1911437,8.54135338 C27.4916926,8.90225564 26.9713692,9.4235589 26.6301736,10.1052632 L14,40 L17.3778371,40 Z" id="Path-Copy-15" fill="#0F0E17" fill-rule="nonzero"></path>
                <path d="M29,35.8903809 L45,27.5876949 L45,25.2126949 L31.3916016,19 L30,22.1104222 C30,22.4113864 30.0790123,22.6894511 30.237037,22.9446164 C30.3950617,23.1997817 30.6452675,23.4189621 30.9876543,23.6021577 L35.5975309,25.6052569 C35.926749,25.7884525 36.2855967,25.9422059 36.6740741,26.0665172 C37.0625514,26.1908285 37.4674897,26.3053258 37.8888889,26.410009 C37.4674897,26.5146922 37.0625514,26.6226467 36.6740741,26.7338726 C36.2855967,26.8450985 35.926749,26.9923092 35.5975309,27.1755048 L29.9876543,30.1982321 C29.6452675,30.3814277 29.3950617,30.5973368 29.237037,30.8459594 C29.0790123,31.094582 29,31.3693753 29,31.6703395 L29,35.8903809 Z" id="Path-Copy-16" fill="#0F0E17" fill-rule="nonzero"></path>
                <mask id="mask-2" fill="white">
                    <use xlink:href="#path-1"></use>
                </mask>
                <use id="Path-Copy-17" fill="#0F0E17" fill-rule="nonzero" transform="translate(11.000000, 20.445190) rotate(-180.000000) translate(-11.000000, -20.445190) " xlink:href="#path-1"></use>
            </g>
        </g>
    </g>
</svg>