<?xml version="1.0" encoding="UTF-8"?>
<svg width="14px" height="24px" viewBox="0 0 14 24" version="1.1" xmlns="http://www.w3.org/2000/svg" xmlns:xlink="http://www.w3.org/1999/xlink">
    <!-- Generator: Sketch 58 (84663) - https://sketch.com -->
    <title>long-arrow-down</title>
    <desc>Created with Sketch.</desc>
    <g id="Page-1" stroke="none" stroke-width="1" fill="none" fill-rule="evenodd">
        <g id="Home" transform="translate(-714.000000, -768.000000)" fill="#FFFFFF" fill-rule="nonzero">
            <g id="long-arrow-down" transform="translate(714.000000, 768.000000)">
                <path d="M13.8077528,16.66234 L13.421112,16.283536 C13.1648463,16.0325 12.7493304,16.0325 12.49301,16.283536 L7.92966403,20.7796839 L7.92966403,0.64285786 C7.92966403,0.287839607 7.63582795,0 7.27341371,0 L6.72653844,0 C6.3641242,0 6.07028812,0.287839607 6.07028812,0.64285786 L6.07028812,20.7796839 L1.50694214,16.283536 C1.25067639,16.0325 0.835160564,16.0325 0.578840126,16.283536 L0.192199313,16.66234 C-0.0640664375,16.913376 -0.0640664375,17.3204122 0.192199313,17.5714482 L6.53595241,23.811723 C6.79221816,24.062759 7.20773399,24.062759 7.46405443,23.811723 L13.8078075,17.5714482 C14.0640733,17.3204122 14.0640733,16.913376 13.8077528,16.66234 Z" id="Path"></path>
            </g>
        </g>
    </g>
</svg>