<?xml version="1.0" encoding="UTF-8"?>
<svg width="18px" height="18px" viewBox="0 0 18 18" version="1.1" xmlns="http://www.w3.org/2000/svg" xmlns:xlink="http://www.w3.org/1999/xlink">
    <!-- Generator: Sketch 58 (84663) - https://sketch.com -->
    <title>plus copy 6</title>
    <desc>Created with Sketch.</desc>
    <g id="Page-1" stroke="none" stroke-width="1" fill="none" fill-rule="evenodd">
        <g id="Home" transform="translate(-990.000000, -2486.000000)" fill="#000000" fill-rule="nonzero">
            <g id="plus-copy-6" transform="translate(990.000000, 2486.000000)">
                <path d="M17.625,7.875 L10.125,7.875 L10.125,0.375 C10.125,0.1678125 9.9571875,0 9.75,0 L8.25,0 C8.0428125,0 7.875,0.1678125 7.875,0.375 L7.875,7.875 L0.375,7.875 C0.1678125,7.875 0,8.0428125 0,8.25 L0,9.75 C0,9.9571875 0.1678125,10.125 0.375,10.125 L7.875,10.125 L7.875,17.625 C7.875,17.8321875 8.0428125,18 8.25,18 L9.75,18 C9.9571875,18 10.125,17.8321875 10.125,17.625 L10.125,10.125 L17.625,10.125 C17.8321875,10.125 18,9.9571875 18,9.75 L18,8.25 C18,8.0428125 17.8321875,7.875 17.625,7.875 Z" id="Path"></path>
            </g>
        </g>
    </g>
</svg>